# xmcd
#
# Track frame offsets: 
#        150
#        17820
#        31021
#        55545
#        73341
#        99599
#        116604
#        134679
#        156051
#        170180
#        188301
#        198922
#        216879
#        240964
#
# Disc length: 3443 seconds
#
# Revision: 0
# Processed by: cddbd v1.5.2PL0 Copyright (c) Steve Scherf et al.
# Submitted via: ExactAudioCopy v1.0b3
#
DISCID=ba0d710e
DTITLE=BAT - Waiting For Zavala
DYEAR=2012
DGENRE=Acoustic
TTITLE0=Lover Boy
TTITLE1=Jumping Jolly Jimmy John
TTITLE2=Turtler Island
TTITLE3=Just You And Me
TTITLE4=The Two Of Us
TTITLE5=Flash and Fire
TTITLE6=Playground
TTITLE7=Hold Me Tight
TTITLE8=Moonbeam
TTITLE9=Islands
TTITLE10=Ridin' Alone
TTITLE11=Firefighter
TTITLE12=Out Of The Blue
TTITLE13=Anna and The Yurt and Me
EXTD=
EXTT0=
EXTT1=
EXTT2=
EXTT3=
EXTT4=
EXTT5=
EXTT6=
EXTT7=
EXTT8=
EXTT9=
EXTT10=
EXTT11=
EXTT12=
EXTT13=
PLAYORDER=
